<svg width="1055" height="1080" viewBox="0 0 1055 1080" fill="none" xmlns="http://www.w3.org/2000/svg">
<path d="M29 546C29 269.858 252.858 46 529 46V46C805.142 46 1029 269.858 1029 546V546C1029 822.142 805.142 1046 529 1046V1046C252.858 1046 29 822.142 29 546V546Z" fill="#214F39"/>
<path d="M529.169 4.92249C551.735 -0.0589829 574.785 -0.811851 597.774 4.2673C602.999 5.43068 601.976 9.20192 604.039 10.112C607.802 11.7854 615.046 8.69935 616.001 8.86079C621.809 9.75577 618.416 16.0491 619.149 16.4322C627.222 20.6173 626.108 12.5991 634.478 13.4559C645.4 14.6091 658.775 19.0679 671.357 22.8947C675.769 24.2736 672.442 28.6257 682.018 30.9731C688.719 32.5307 711.236 33.7975 718.287 43.2698C717.507 45.5007 715.426 47.5056 714.09 49.6105C730.65 45.3869 735.519 47.6643 752.787 58.0993C755.5 59.7659 759.953 57.3673 764.364 61.1672C768.747 64.9938 766.206 70.6167 776.076 75.6753C779.571 77.4761 783.768 74.7204 789.21 77.5221C804.857 85.3057 829.549 107.803 840.619 116.382C862.634 133.065 879.141 137.221 895.664 156.106C896.923 157.551 890.577 158.196 893.045 160.652C895.516 163.114 902.587 161.076 903.324 161.585C911.362 166.974 918.814 187.265 922.932 190.411C933.203 198.16 927.119 186.865 939.544 199.461C951.422 211.606 958.811 235.133 966.547 249.583C975.469 266.28 989.035 265.497 985.372 284.239C1010.99 327.292 1030.23 374.431 1042.49 423.204C1040.02 423.647 1037.53 424.071 1035.05 424.492C1037.65 427.896 1040.22 431.356 1042.74 434.874C1040.79 434.682 1038.84 434.526 1036.9 434.343C1047.84 450.781 1054.42 466.94 1054.84 488.939C1054.85 489.368 1049.74 488.788 1049.65 489.154C1049.24 494.128 1053.58 499.148 1053.02 503.533C1051.77 514.177 1041.45 531.986 1054.51 523.774C1054 530.895 1053.98 538.363 1054.06 546C1054.06 546 1054.06 546 1054.06 546C1054.28 564.302 1054.93 583.448 1051.45 599.457C1049.3 609.343 1041.02 611.272 1039.96 615.846C1038.87 620.418 1045.93 619.007 1045.96 620.705C1046.1 630.946 1042.71 647.471 1034.87 647.605C1037.46 650.163 1040.04 652.899 1042.61 655.573C1034.76 652.73 1031.03 683.705 1028.26 691.508C1027.8 692.932 1024.19 692.084 1023.91 693.166C1020.77 705.195 1025.29 709.94 1023.55 720.826C1022.9 724.635 1018.78 716.91 1018.1 726.993C1018.01 727.868 1023.77 729.51 1019.44 740.46C1012.74 757.906 999.325 791.574 985.369 809.36C984.258 810.815 981.512 802.855 978.622 810.744C977.544 813.589 982.213 814.681 978.425 820.974C963.659 845.464 941.705 866.638 926.033 891.191C922.874 887.006 925.168 875.618 917.57 889.229C916.347 891.41 920.979 893.081 920.374 894.019C915.375 901.609 907.694 905.062 902.172 913.192C900.538 915.601 902.584 918.643 900.618 921.79C897.699 926.442 892.463 924.388 889.48 930.186C884.781 939.225 886.773 944.02 871.493 944.67C820.83 989.126 761.828 1025.83 696.474 1043.36C678.881 1052.13 662.194 1059.95 642.327 1065.35C636.434 1066.92 634.047 1060.81 625.072 1064.69C623.15 1065.59 608.878 1075.01 604.829 1062.26C600.833 1063.99 598.192 1064.38 594.678 1065.53C597.65 1067.1 600.737 1068.65 603.645 1070.21C588.06 1070.27 576.033 1076.07 562.301 1079.14C552.186 1081.32 559.109 1075.3 552.953 1076.17C546.816 1076.97 543.943 1078.35 536.119 1071.72C533.66 1074.97 531.479 1075.94 529 1075.94C529 1075.94 529 1075.94 529 1075.94C525.473 1075.93 521.364 1073.99 514.818 1073.7C513.625 1073.65 506.579 1076.46 500.789 1075.54C496.599 1074.88 495.661 1069.97 489.029 1070.24C487.957 1070.32 473.516 1075.08 468.891 1075.06C461.753 1075.17 451.632 1067.44 450.36 1067.16C431.302 1063.1 422.592 1067.49 411.319 1054.6C407.289 1059.86 395.122 1060.56 386.17 1057.43C374.696 1053.62 356.41 1034.51 349.063 1045.55C338.18 1035.36 338.341 1039.31 323.275 1033.2C309.304 1027.85 276.777 1005.85 266.376 1000.22C255.777 994.809 257.067 1003.93 252.469 1002.3C244.921 999.555 251.336 997.244 246.767 994.476C233.88 986.598 222.517 979.984 209.511 973.168C211.13 969.705 212.727 966.2 214.351 962.738C213.013 963.289 211.672 963.839 210.327 964.381C207.902 962.485 205.131 960.427 202.967 958.569C211.943 986.457 185.083 943.192 175.576 933.132C167.005 924.947 147.335 916.453 137.053 907.683C134.558 905.584 139.042 904.485 138.525 904.061C132.462 899.108 129.574 900.073 123.017 891.865C119.562 887.493 119.879 879.924 116.625 875.703C92.7191 844.709 67.9569 815.185 50.0438 779.916C46.9998 773.904 50.1868 766.09 48.0404 760.972C44.9775 753.634 38.3526 750.956 35.4507 743.973C32.54 736.994 34.461 724.749 31.9551 720.332C29.4365 715.846 26.7368 725.996 25.224 716.642C24.5571 712.351 31.0993 718.101 29.5468 713.072C24.6884 697.508 13.226 676.407 14.7015 658.125C13.5907 659.156 12.6708 660.44 11.6596 661.638C8.11543 643.217 8.44295 626.446 6.65379 607.414C6.01243 600.721 1.09636 589.086 0.692282 582.418C0.27139 575.78 4.27825 572.538 4.17524 567.319C4.14809 565.163 0.457414 566.144 0.480807 564.685C0.619952 557.556 1.78775 551.648 3.1155 546C3.1155 546 3.1155 546 3.1155 546C5.20638 537.165 7.63783 529.088 7.77705 517.608C8.58218 448.349 24.4599 376.548 53.9867 311.523C55.1712 308.912 51.6989 304.997 53.0023 300.896C55.0231 294.585 58.99 296.332 59.523 295.641C63.031 291.125 58.4213 291.245 62.1339 284.571C70.2567 269.803 87.7569 248.934 97.3245 235.39C119.247 204.024 138.007 177.249 164.621 149.954C166.539 147.992 169.05 153.469 172.584 150.371C197.887 129.116 199.843 119.965 235.136 97.8588C270.176 75.2031 342.732 45.0321 389.723 34.4806C389.726 34.4935 389.73 34.5064 389.733 34.5193C401.579 20.2365 422.202 18.3423 439.521 23.6026C353.361 65.2603 270.9 90.0676 195.779 154.18C117.294 221.996 74.5584 325.887 48.0768 420.86C45.5171 429.857 38.7739 432.194 38.3017 440.317C38.2302 441.681 43.5132 439.254 43.1195 443.388C39.8918 477.074 34.0279 511.315 32.231 546C32.231 546 32.231 546 32.231 546C31.0024 569.467 31.6371 592.779 35.9097 614.929C38.8451 629.638 44.426 631.141 48.2162 643.574C45.358 641.826 42.5493 640.843 39.7399 639.321C43.4609 700.3 69.2264 757.741 100.64 810.44C102.057 812.832 97.936 815.836 99.3579 818.434C102.201 823.648 109.975 825.253 112.996 829.342C116.963 834.684 114.323 837.957 118.152 842.827C120.04 845.186 122.627 842.178 125.987 847.788C126.271 848.256 123.213 851.003 126.287 854.16C134.623 862.896 152.946 879.195 160.405 885.568C169.79 893.832 172.574 905.202 175.746 908.849C184.311 918.585 188.435 913.773 196.455 920.978C253.778 971.615 316.899 1014.8 394.287 1036.21C399.21 1037.63 418.698 1035.25 427.609 1037.27C430.548 1038.06 446.035 1042.76 448.441 1043.23C458.013 1045.37 465.873 1050.62 471.249 1052.11C481.683 1055.06 493.953 1049.33 499.681 1048.98C508.256 1048.52 522.316 1049.34 529 1049.57C529 1049.57 529 1049.57 529 1049.57C530.161 1049.62 531.09 1049.65 531.718 1049.68C541.897 1049.99 538.715 1058.2 546.043 1056.09C548.193 1055.44 545.733 1049.29 553.271 1048.95C559.604 1048.66 562.501 1053.2 566.946 1053.73C571.429 1054.27 578.707 1046.26 581.381 1046.15C595.566 1045.63 602.372 1049.56 617.841 1047.17C630.889 1046.07 687.606 1027.29 691.365 1023.3C709.516 1008.87 676.271 1024.04 674.134 1024.11C663.084 1025.83 663.957 1022.52 654.688 1030.81C641.378 1016.66 613.015 1049.9 600.906 1030.54C594.007 1045.42 585.204 1039.53 575.587 1037.66C562.214 1034.99 572.846 1042.14 563.212 1042.91C559.35 1043.22 548.113 1037.55 542.526 1038.54C537.463 1039.45 535.066 1043.44 529 1044.43C529 1044.43 529 1044.43 529 1044.43C528.323 1044.54 527.601 1044.61 526.825 1044.63C513.056 1045.05 502.092 1042.29 491.165 1035.73C488.902 1038.1 486.75 1040.47 484.459 1042.81C476.841 1039.4 469.187 1035.81 461.837 1032.08C462.773 1034.44 463.727 1036.82 464.7 1039.17C462.36 1039.19 460.017 1039.18 457.681 1039.15C450.55 1034.77 443.78 1030.52 436.806 1025.68C413.44 1034.02 421.605 1024.3 410.667 1020C399.74 1015.54 391.166 1020.76 382.358 1018.1C370.513 1014.42 364.857 1013.45 353.321 1008.56C346.615 1005.72 338.025 994.416 343.084 1008.72C321.617 1001.27 291.917 989.958 276.713 975.473C272.238 971.267 280.922 972.262 280.262 971.352C276.996 967.003 270.371 969.752 266.345 966.257C259.623 960.507 248.235 947.334 243.448 942.488C236.491 935.668 219.848 932.068 218.251 931.433C209.437 928.199 211.639 921.845 209.219 920.358C195.424 911.747 191.006 910.952 196.346 898.013C189.504 899.468 170.195 893.709 174.233 883.99C167.915 889.897 158.937 878.224 151.453 872.777C152.24 869.875 153.02 866.974 153.867 864.086C129.692 859.905 115.786 822.252 105.193 800.378C104.913 799.835 98.7895 802.207 98.1461 798.241C98.1307 797.977 100.823 796.837 99.8981 794.499C96.5169 786.819 88.8247 755.96 87.6456 752.734C82.4108 740.855 77.148 740.607 73.64 733.404C69.1111 723.864 72.6271 720.86 68.6285 711.737C66.7984 707.469 59.9606 705.303 58.4319 697.961C57.5371 693.622 61.7062 691.862 61.0497 688.48C58.7789 676.461 53.7115 668.345 56.9485 656.509C42.3661 656.989 51.4801 649.473 51.4763 644.044C51.3527 622.055 42.0302 596.025 42.2546 577.15C42.3303 566.499 42.9204 556.239 43.9039 546C43.9039 546 43.9039 546 43.9039 546C48.4722 499.946 60.4483 458.909 74.2967 415.933C77.094 407.446 70.8604 403.253 74.2816 394.298C75.848 390.283 82.1739 387.849 84.6383 381.397C86.6338 376.201 87.0876 367.781 89.8259 361.346C90.5491 359.635 95.1009 361.386 96.2074 358.917C104.618 340.227 110.663 320.802 119.402 301.529C122.653 294.377 130.732 293.789 120.508 288.897C124.447 287.825 128.038 286.689 131.839 285.86C131.834 273.009 142.915 269.922 150.148 257.392C150.866 256.053 151.566 242.504 159.923 241.259C157.118 238.364 153.874 236.949 151.191 234.498C154.019 228.631 163.865 224.355 167.027 221.569C170.18 218.762 168.275 213.165 169.113 212.186C172.342 208.527 176.55 214.067 176.884 213.872C197.118 202.319 192.766 201.819 195.735 184.887C196.482 180.482 218.9 170.947 217.524 161.818C219.771 164.253 220.6 167.33 222.313 170.006C228.207 166.29 234.224 162.695 240.269 159.238C237.193 157.571 233.858 156.107 230.838 154.392C243.874 147.936 249.406 135.015 259.556 128.722C265.355 125.174 268.394 131.58 270.925 128.197C271.424 127.532 267.809 124.189 269.58 122.653C284.158 110.23 293.962 110.54 311.121 103.002C319.161 99.5673 322.65 88.3809 336.651 88.6086C337.988 88.5953 352.086 91.0694 355.481 78.1647C358.999 80.5498 361.623 81.5339 364.304 83.6692C373.571 63.2698 374.943 79.4414 395.68 77.2656C406.435 75.8843 440.727 65.361 452.216 62.1582C458.939 60.0458 457.919 53.7678 459.132 53.3296C466.418 50.8453 467.202 57.0038 473.969 55.202C480.748 53.4134 488.88 45.6533 496.208 45.8332C501.774 45.9932 497.888 53.9119 505.809 50.8267C507.458 50.1779 502.358 43.8295 511.045 46.0552C512.446 46.3576 526.255 53.1565 529 54.74C521.741 58.7335 501.751 64.7789 494.311 67.0913C360.565 89.3887 150.23 241.149 108.287 373.118C103.374 384.264 94.3332 389.56 91.1415 397.071C88.0115 404.581 96.0098 400.021 93.272 406.804C90.5643 413.578 84.894 417.439 82.6989 424.015C69.6737 463.064 61.7698 504.414 60.4431 546C60.4431 546 60.4431 546 60.4431 546C60.2669 551.462 60.202 556.898 60.2485 562.304C60.3752 574.417 66.0839 583.815 67.1883 594.581C67.6335 598.816 61.235 599.677 61.6508 602.721C66.1759 635.563 78.9622 663.782 88.4861 694.562C92.4354 707.331 92.655 722.958 97.661 735.569C101.753 745.965 110.146 754.699 114.83 763.418C117.385 768.143 114.456 773.001 115.076 774.927C117.312 781.563 121.376 776.498 123.1 779.515C127.875 787.779 124.206 795.678 129.62 803.077C131.758 805.955 135.372 803.051 138.814 806.915C143.206 811.799 138.332 812.21 140.874 816.154C141.02 816.394 143.208 813.756 144.733 815.699C154.552 828.246 168.831 842.109 178.73 853.628C199.06 877.479 217.786 903.469 240.811 922.673C246.632 927.481 247.629 922.799 249.651 924.052C259.399 929.978 259.834 936.583 270.895 941.67C272.754 942.53 282.656 941.827 288.363 947.008C291.446 949.816 293.623 955.389 296.284 957.892C298.946 960.391 302.107 955.88 305.8 957.89C312.554 961.484 308.788 963.856 318.957 968.236C323.093 970.044 338.576 971.694 348.853 976.367C365.557 984.117 385.851 996.307 407.238 1002.03C414.595 1004.03 425.257 1000.86 436.618 1003.09C450.432 1005.96 476.239 1010.9 490.76 1011.97C498.169 1012.59 498.362 1018.47 499.244 1018.78C504.935 1020.76 502.988 1014.04 506.78 1014.49C511.982 1015.09 516.775 1020.1 521.638 1020.5C524.736 1020.74 525.265 1015.88 525.929 1015.85C526.957 1015.79 527.981 1015.73 529 1015.67C529 1015.67 529 1015.67 529 1015.67C552.327 1014.24 573.031 1013.18 596.035 1009.42C725.272 988.506 839.414 908.252 912.529 803.599C918.65 794.806 924.028 797.73 928.242 789.077C932.478 780.319 925.31 766.1 941.839 766.172C939.357 764.559 937.49 763.591 935.239 762.108C948.094 746.846 952.325 727.078 958.523 709.265C963.125 696.015 967.449 684.321 971.309 671.956C974.668 660.986 979.399 663.098 975.228 651.863C986.346 617.974 990.857 581.96 993.369 546C993.369 546 993.369 546 993.369 546C994.359 531.837 995.062 517.778 995.759 503.577C983.75 492.98 989.393 481.459 988.23 465.123C988.082 463.127 984.528 465.911 983.799 460.091C982.826 452.833 988.123 447.759 984.889 435.582C984.141 432.255 971.195 410.51 971.524 400.964C972.04 391.262 969.424 378.116 968.877 367.996C966.954 370.244 965.255 372.765 963.391 375.102C961.245 370.889 959.052 366.709 956.781 362.57C959.413 360.698 962.04 358.812 964.686 356.931C960.821 355.578 956.988 354.268 953.078 353.028C965.304 340.854 963.136 348.507 953.631 338.233C948.845 333.125 948.931 327.101 944.211 321.818C942.496 319.923 937.551 320.839 935.704 318.788C931.17 313.757 938.785 313.862 936.698 310.301C934.543 306.698 925.362 305.351 924.164 297.423C939.286 297.196 923.431 280.19 914.504 285.08C913.002 282.9 912.083 280.834 910.17 278.601C932.455 266.342 909.506 264.977 903.434 262.803C897.337 260.496 902.829 256.545 901.817 255.668C898.917 253.162 898.392 257.055 896.694 255.058C885.511 241.876 877.765 226.87 865.899 214.263C864.194 212.46 863.014 216.716 861.255 214.413C859.495 212.118 860.204 207.445 856.924 204.657C856.047 203.908 853.46 206.093 852.169 204.873C825.233 179.218 798.379 155.44 765.427 135.821C762.431 134.057 757.144 137.915 751.447 134.58C745.783 131.255 739.252 121.823 731.878 117.879C729.929 116.831 727.275 121.094 724.707 119.764C715.959 115.253 709.691 108.173 700.263 103.795C684.279 96.3987 666.01 93.6697 649.59 86.338C646.451 84.9593 648.031 81.0566 643.534 78.739C635.74 74.7882 637.467 81.4603 635.625 81.8607C629.641 83.1985 629.596 74.9425 623.846 75.8916C622.974 76.0441 623.186 80.9644 622.45 80.8934C611.187 79.5637 612.379 68.3762 599.299 72.4518C589.39 64.5147 607.823 64.9438 610.349 61.9765C616.437 54.5661 605.568 42.7966 598.399 38.7025C592.256 35.1586 591.645 40.3292 589.076 40.0203C575.419 38.3414 554.983 37.9829 544.667 35.2971C538.36 33.6389 549.881 31.8247 546.692 30.0259C543.498 28.2207 541.317 32.0572 538.06 27.7459C534.841 23.4219 527.856 10.8919 529.169 4.92249ZM924.075 873.589C922.454 844.634 954.413 802.242 969.206 776.658C981.879 756.167 1004.31 742.473 981.395 738.277C971.031 761.979 963.444 781.817 948.461 804.92C946.939 807.372 935.926 820.488 932.187 825.065C930.114 827.675 926.979 825.599 924.407 829.263C923.868 830.06 924.647 837.35 923.333 838.879C918.939 844.258 900.414 855.241 898.747 857.401C894.219 863.725 900.571 865.275 899.156 868.538C894.208 879.464 886.863 874.463 881.212 884.548C880.206 886.33 881.001 896.554 874.193 901.762C871.43 903.875 864.476 905 862.692 906.898C853.004 917.288 844.092 931.64 833.09 939.034C824.076 945.04 822.828 938.515 817.837 941.226C812.877 943.91 811.238 953.432 808.21 955.97C803.397 960.024 794.918 960.861 793.335 961.927C762.035 983.121 733.367 1002.15 699.023 1016.4C723.642 1010.38 747.837 1002.22 771.488 992.534C781.127 980.195 777.621 988.725 786.841 985.603C794.118 983.043 790.291 973.263 799.112 969.026C799.105 969.031 799.099 969.035 799.092 969.039C803.615 966.879 816.853 966.779 823.943 957.972C824.182 957.646 821.862 952.749 828.166 947.838C842.479 936.807 861.678 916.999 876.815 903.691C881.28 899.792 884.408 904.672 889.899 900.112C893.901 896.75 894.247 888.848 900.511 883.705C908.346 877.279 918.449 879.273 913.334 865.92C917.128 868.337 920.286 871.344 924.075 873.589ZM988.129 341.869C988.134 340.435 992.504 317.064 981.512 328.656C986.706 354.29 999.592 378.525 1003.67 405.116C1015.21 392.223 1004.89 378.748 996.995 361.689C996.992 361.681 996.989 361.674 996.986 361.666C996.609 360.852 1001.57 362.921 999.044 358.444C997.811 356.238 988.825 349.84 988.129 341.869Z" fill="white"/>
<circle cx="232.125" cy="530.375" r="140.625" fill="white"/>
<path d="M395.661 540.16C395.956 545.965 394.419 553.455 392.512 558.93C391.922 560.643 390.861 559.527 390.392 560.684C389.473 562.925 389.6 565.249 388.498 567.415C388.127 568.128 386.436 566.733 386.091 567.482C384.213 571.564 383.558 575.706 381.758 579.829C372.898 600.008 361.339 618.227 346.094 633.734C341.059 638.881 333.602 643.512 328.427 648.701C327.822 649.313 329.304 650.334 329.267 650.547C328.608 653.871 327.102 650.607 325.507 651.264C319.16 653.876 313.101 657.735 307.955 661.475C305.763 663.063 309.812 664.71 306.477 664.376C306.249 664.354 305.955 662.419 305.215 662.606C303.545 663.038 300.908 664.79 299.681 665.235C297.322 666.085 296.963 666.275 294.823 667.244C291.876 668.551 288.027 669.177 284.963 670.77C284.307 671.117 285.886 672.535 284.884 673.249C283.883 673.969 280.856 674.854 279.71 674.756C278.565 674.664 278.539 673.117 278.257 672.853C275.956 670.606 273.727 675.395 273.273 675.616C265.53 679.52 257.825 678.712 250.055 679.656C244.156 680.376 237.849 681.465 232.125 681.37C232.078 681.369 232.03 681.368 231.983 681.367C225.126 681.216 219.475 679.822 212.915 679.175C212.222 679.102 212.751 681.401 211.895 681.313C202.787 680.365 193.818 678.083 185.672 673.877C184.858 673.453 186.563 671.966 185.795 671.434C180.991 668.237 174.917 661.576 168.412 667.818C165.132 665.943 161.205 663.528 159.146 660.404C157.829 658.395 160.672 657.59 157.98 657.072C157.374 656.949 157.094 658.934 156.248 658.622C152.67 657.292 149.561 654.565 145.972 653.208C145.238 652.935 144.448 654.407 144.098 654.525C141.175 655.428 141.095 650.368 140.776 649.749C138.156 644.994 134.901 643.356 131.512 640.196C130.731 639.46 130.158 641.963 129.346 641.305C125.149 637.856 121.339 633.637 118.623 629C118.025 627.966 120.166 627.538 119.958 626.984C119.051 624.572 115.946 626.445 115.054 624.106C114.866 623.617 116.312 622.822 116.394 622.64C117.719 619.808 113.855 621.295 113.555 621.048C109.783 618.064 111.477 613.257 108.619 609.939C108.271 609.535 107.189 611.658 106.311 610.442C100.448 602.343 96.1291 592.449 94.2173 582.722C93.9175 581.21 95.7475 581.685 95.891 581.526C98.1422 579.055 94.0736 579.502 93.7631 579.074C91.4341 575.716 93.6087 571.331 88.3307 570.043C86.0526 556.819 82.8654 543.688 84.4328 530.375C84.8201 527.1 85.4952 523.914 86.5437 520.747C86.6063 520.545 88.5417 521.039 88.6582 520.639C90.1235 515.847 87.0183 516.595 83.6716 512.828C82.8355 511.853 87.6407 509.907 88.0008 509.756C89.3196 509.134 92.0937 510.37 92.3649 510.14C94.5124 508.289 84.8979 507.153 85.4273 504.075C85.4599 503.984 87.1403 504.692 87.3593 504.47C88.0448 503.785 87.4945 502.881 88.2438 502.235C89.9817 500.754 94.6829 501.15 92.6035 497.979C92.3388 497.569 86.861 496.847 87.7723 494.221C88.1206 493.183 89.324 488.445 90.0785 487.258C90.8139 486.065 92.2295 487.476 92.3313 487.404C95.6357 484.67 96.1537 486.27 99.9796 485.711C103.791 485.207 95.8759 482.972 95.2536 481.974C94.6312 480.972 97.3548 479.163 98.2113 478.821C99.0657 478.469 99.8272 479.611 100.383 479.226C104.043 476.711 97.2004 476.193 96.4641 474.535C94.7695 470.554 101.319 470.84 102.982 468.74C103.439 468.16 101.932 468.09 102.098 467.45C102.789 464.906 105.167 464.424 105.024 461.035C104.992 460.494 102.981 456.575 106.098 456.586C106.542 456.596 107.54 457.891 108.387 457.126C109.65 455.984 111.47 453.687 112.004 451.955C112.4 450.67 109.492 450.532 111.049 449.592C111.742 449.182 112.211 451.109 113.406 450.281C114.59 449.456 116.514 446.627 117.258 445.554C117.992 444.478 116.049 443.913 116.008 443.753C115.8 442.797 116.637 440.209 116.785 440.033C123.744 430.83 133.381 425.658 141.155 417.976C141.775 417.372 140.073 416.174 140.154 416.066C141.97 413.547 143.446 419.166 146.13 419.325C143.409 416.3 144.806 416.13 146.201 414.537C146.874 413.768 145.505 412.825 145.482 412.642C145.287 409.82 147.958 411.71 148.532 412.076C150.668 413.408 149.979 410.551 151.41 411.455C152.819 412.361 152.86 415.087 154.444 413.984C154.097 412.469 150.756 410.131 151.679 408.776C155.201 403.525 166.228 400.839 170.494 399.283C174.779 397.629 176.062 396.838 178.726 396.324C183.55 395.466 180.902 393.475 183.336 391.226C185.822 389.003 186.625 396.066 187.509 397.338C188.37 398.621 188.312 397.024 189.053 397.645C189.785 398.27 189.063 399.567 190.278 399.499C191.478 399.426 193.804 395.977 193.82 394.362C193.815 390.94 191.406 387.991 194.945 388.307C195.147 388.329 195.013 390.248 195.76 390.244C201.629 390.171 207.45 389.13 213.191 389.62C213.977 389.692 213.559 391.793 214.015 391.858C218.738 392.592 216.695 389.401 218.935 385.362C218.824 390.457 220.49 393.373 223.91 393.194C225.986 393.098 225.504 390.916 226.814 389.305C227.211 388.819 228.75 390.292 228.997 389.25C229.835 385.845 228.31 382.046 232.125 383.532C232.127 383.533 232.128 383.533 232.13 383.534C232.189 383.559 232.16 383.807 232.125 384.121C232.078 384.535 232.019 385.065 232.125 385.36C232.167 385.476 232.234 385.556 232.339 385.577C235.993 386.342 236.496 382.796 240.569 382.569C243.789 382.39 249.177 385.077 252.619 385.941C251.777 391.557 255.11 390.735 257.132 387.119C259.371 387.669 261.846 387.936 263.902 388.952C264.606 389.3 263.753 390.795 263.808 390.99C264.592 394.028 266.409 390.55 266.935 390.526C272.525 390.43 275.802 394.456 281.532 393.511C281.731 393.476 283.379 389.867 283.681 393.058C283.689 393.274 281.482 394.362 283.683 395.342C285.91 396.328 289.198 399.982 292.953 399.731C293.851 399.661 297.133 397.675 297.491 400.665C297.533 401.068 296.81 401.971 296.804 402.674C296.78 404.915 299.117 401.63 298.577 405.182C298.037 408.737 298.827 412.039 302.76 411.66C302.879 411.652 305.166 409.331 306.029 409.92C307.398 410.855 309.006 412.671 310.435 413.611C311.121 414.06 311.786 412.139 311.925 412.189C317.188 414.45 319.384 418.292 323.419 422.682C324.144 423.475 328.312 423.56 328.433 426.574C328.523 429.85 320.259 435.241 325.396 437.065C327.387 437.758 338.222 431.343 336.084 438.485C342.185 443.034 343.689 450.396 349.521 455.328C349.781 455.548 353.238 454.622 353.625 455.337C354.189 456.394 353.156 457.775 353.493 458.547C354.863 461.804 357.6 463.979 358.942 467.135C359.448 468.329 357.771 468.653 358.349 470.063C358.917 471.466 361.328 471.492 361.211 473.828C361.116 475.604 357.616 478.731 357.862 480.762C361.961 479.221 362.409 480.559 364.36 482.546C364.737 482.928 365.994 481.918 366.246 482.074C367.309 482.706 366.406 483.954 367.506 484.534C367.771 484.676 369.192 484.209 369.489 484.302C372.086 485.094 369.642 488.583 369.194 489.145C367.535 491.364 369.61 491.559 369.102 493.023C368.584 494.468 367.04 492.943 366.904 494.489C366.617 497.665 367.702 501.342 368.194 504.334C368.399 505.525 370.211 504.349 370.286 504.511C371.255 506.935 369.535 509.769 373.666 510.619C363.701 513.734 374.884 512.001 373.234 515.942C373.097 516.249 368.292 517.071 367.474 516.086C366.655 515.107 367.979 513.318 366.676 512.002C366.372 511.673 361.581 510.4 361.266 510.198C358.819 508.527 365.92 507.016 366.296 506.827C370.32 504.79 365.016 503.254 364.555 502.727C362.437 500.184 362.852 497.578 361.146 495.507C360.036 494.159 355.413 495.322 355.222 494.143C354.571 490.288 360.358 486.667 353.634 485.058C352.192 484.725 347.638 487.336 350.414 483.215C350.597 482.969 353.247 479.544 350.567 479.324C350.231 479.3 348.842 479.907 348.644 479.773C347.35 478.868 348.082 477.551 346.932 476.46C345.783 475.376 344.238 474.189 343.928 472.478C343.744 471.452 345.615 468.969 345.979 468.194C347.045 465.988 343.456 466.298 345.104 464.339C346.736 462.333 350.833 462.017 350.933 459.12C347.508 461.072 343.941 462.988 340.483 464.928C338.069 460.674 336.36 455.934 333.164 452.097C332.766 451.628 331.48 453.423 331.015 452.961C329.067 451.027 328.683 448.209 326.328 446.465C324.497 445.122 321.222 444.913 319.242 443.726C321.469 439.558 317.896 438.23 316.326 436.287C315.77 435.599 316.611 434.737 316.397 434.026C315.55 431.367 313.794 435.123 312.904 435.184C309.122 435.505 314.668 428.376 311.835 426.455C311.675 426.338 307.071 428.888 306.675 428.974C304.046 429.471 307.42 427.443 306.686 426.474C305.34 424.712 304.73 422.894 301.856 422.701C301.003 422.643 297.969 424.263 297.982 421.563C297.981 421.208 298.892 419.902 298.811 419.744C297.244 416.999 294.653 421.287 292.526 422.027C290.41 422.774 289.997 418.664 290 417.552C290.04 414.685 291.372 417.022 291.546 416.834C293.669 414.56 291.861 414.186 290.753 413.349C292.779 408.885 290.861 408.271 289.591 412.503C289.453 412.964 290.608 413.025 290.753 413.349C287.512 417.097 285.553 416.82 285.307 411.79C285.177 409.434 287.118 407.582 283.665 407.089C282.102 406.879 281.363 410.22 279.816 410.588C276.321 411.443 273.8 407.21 270.666 406.76C269.552 406.604 270.039 408.685 269.268 408.644C267.236 408.549 265.913 406.741 263.787 406.928C263.597 406.948 263.541 408.927 262.944 408.8C258.415 407.897 254.68 405.893 249.832 405.17C247.491 404.81 243.199 405.433 240.798 405.071C238.092 404.652 235.045 403.296 232.125 402.621C230.519 402.247 228.992 402.078 227.696 402.366C225.324 402.893 225.948 404.809 225.015 406.175C223.267 408.815 219.549 404.564 218.973 403.92C218.955 403.895 220.946 403.248 219.765 402.364C218.926 400.368 218.992 403.909 218.973 403.92C218.62 403.481 214.481 403.536 213.734 404.036C213.327 404.299 213.836 406.075 213.622 406.177C208.519 408.589 203.53 410.133 198.089 410.786C197.987 410.776 197.567 408.767 197.331 408.771C194.01 408.78 192.789 411.818 190.887 414.064C188.976 416.32 186.99 416.575 184.221 413.913C182.576 415.061 179.364 414.792 177.46 414.657C175.551 414.521 177.099 418.211 177.01 418.341C174.197 422.565 170.952 421.744 166.802 423.849C164.829 424.834 161.52 427.72 159.875 429.46C158.574 430.829 157.115 430.756 156.118 432.282C155.984 432.487 157.257 433.745 157.243 433.842C157.075 436.67 155.1 432.709 154.307 432.347C151.426 431.044 149.716 430.487 148.648 433.144C148.384 433.768 151.257 439.554 150.778 440.485C150.124 441.709 148.971 439.726 148.325 441.069C148.27 441.183 149.231 442.172 148.578 442.709C145.558 445.217 141.994 447.794 139.421 451.014C139.068 451.449 141.196 452.33 140.722 452.973C138.498 455.991 135.967 459.155 133.037 461.577C132.31 462.171 131.37 460.835 130.883 460.739C127.902 460.201 130.264 463.894 130.186 464.158C128.193 470.797 122.527 473.597 121.206 480.66C121.125 481.071 123.954 485.329 120.085 485.106C119.829 485.081 115.841 484.901 117.84 486.894C117.967 487.015 120.055 486.972 119.386 488.184C118.713 489.414 119.213 491.874 116.608 493.017C115.79 493.365 111.748 493.668 114.116 496.267C114.266 496.48 120.078 500.858 115.328 500.621C114.547 500.582 109.776 499.218 111.731 501.947C112.116 502.462 113.358 501.988 113.786 503.194C114.454 505.026 112.71 506.916 114.527 509.286C114.846 509.712 117.911 511.685 115.22 512.453C114.798 512.576 113.218 511.978 112.942 512.575C111.623 515.438 112.374 518.714 111.02 521.69C110.546 522.758 107.919 522.017 107.135 523.152C106.349 524.288 105.57 526.654 106.771 527.92C107.971 529.168 112.239 527.913 112.563 529.692C112.605 529.92 112.645 530.147 112.681 530.375C113.894 537.756 112.204 545.225 113.235 552.72C113.395 553.852 114.708 552.643 115.061 554.266C116.305 560.365 120.735 569.85 119.863 576.005C119.152 581.035 115.186 576.671 115.544 580.235C115.75 582 120.999 581.575 121.297 581.843C124.327 584.583 123.588 587.896 125.869 590.574C126.34 591.118 127.739 589.526 128.117 589.992C129.417 591.559 129.756 593.832 130.945 595.374C131.482 596.061 132.676 595.09 133.01 595.811C133.83 597.529 134.251 599.26 134.193 601.619C134.191 601.837 131.961 602.012 132.756 603.221C134.042 605.161 134.748 608.372 137.614 609.51C138.472 609.845 141.137 607.59 140.42 610.448C140.273 611.042 136.821 613.495 140.869 612.575C141.565 612.458 147.336 611.493 146.198 614.818C145.897 615.697 144.251 618.918 145.331 619.217C145.483 619.245 146.426 617.54 147.12 617.96C149.538 619.455 151.557 621.555 154.11 622.938C154.79 623.3 155.187 621.095 156.152 621.671C158.797 623.246 161.49 625.929 163.597 628.143C164.371 628.963 162.826 629.848 162.79 630.037C162.253 633.137 165.081 630.397 165.553 630.442C168.512 630.796 169.274 633.395 171.66 634.239C172.313 634.472 172.816 632.642 173.015 632.568C175.009 631.871 172.473 634.216 173.066 634.971C174.736 637.102 177.303 638.281 179.69 639.171C180.565 639.493 180.55 637.126 181.314 637.43C185.85 639.185 190.404 641.227 194.557 643.834C195.342 644.328 194.296 645.709 194.359 646.123C194.822 649.033 197.745 646.183 198.243 645.971C200.579 645.03 200.933 646.624 202.709 646.798C211.309 647.639 221.538 649.909 229.719 650.605C230.531 650.68 231.332 650.75 232.125 650.817C241.614 651.578 249.67 652.003 258.862 649.615C259.492 649.449 258.376 647.467 258.904 647.297C265.69 645.211 272.636 643.854 278.959 640.48C279.476 640.207 277.898 638.636 278.686 638.138C280.296 637.102 282.481 636.211 284.492 635.945C285.473 635.81 285.135 637.962 286.116 637.788C288.409 637.378 290.613 636.356 292.441 634.915C293.211 634.299 290.886 633.208 291.955 632.556C299.218 628.033 305.582 622.887 313.855 618.988C314.418 618.723 317.752 621.492 318.142 619.978C317.388 619.05 316.412 618.043 315.559 617.096C324.119 607.902 332.898 598.819 339.164 587.651C339.424 587.185 336.987 586.919 337.472 586.021C340.275 580.782 341.961 575.395 346.117 570.402C346.524 569.903 350.211 571.518 350.226 569.57C350.231 569.227 350.563 566.416 349.921 565.495C349.822 565.367 347.892 565.304 348.086 564.457C349.24 559.524 350.803 554.524 352.727 549.659C353.041 548.87 354.871 550.052 355.111 549.485C356.809 545.433 355.761 540.703 357.761 536.721C359.097 534.04 362.488 535.184 365.918 533.743C366.405 533.537 366.51 531.725 368.478 531.643C373.434 531.426 378.848 532.432 384.132 532.1C385.276 532.029 384.057 529.245 386.802 530.899C386.988 531.014 387.881 533.056 388.799 533.583C389.436 533.951 391.453 533.349 392.262 534.098C393.069 534.854 391.369 535.606 392.29 536.849C393.217 538.106 395.53 537.652 395.661 540.16ZM168.795 414.345C166.468 413.442 169.707 419.664 170.347 417.393C170.374 417.277 168.912 414.388 168.795 414.345ZM340.593 452.927C341.866 449.397 337.35 450.971 336.3 453.557C335.215 456.102 340.191 453.98 340.593 452.927ZM353.736 470.488C354.79 467.142 345.789 471.379 348.719 472.734C348.885 472.814 353.673 470.68 353.736 470.488ZM366.512 540.994C366.608 540.98 366.794 539.68 366.703 539.642C364.531 538.808 364.166 541.362 366.512 540.994ZM364.128 490.064C365.188 488.913 363.006 487.204 361.716 488.654C360.678 489.801 362.809 491.476 364.128 490.064ZM106.099 470.152C105.993 470.13 105.492 470.967 106.036 471.201C107.784 471.949 107.87 470.521 106.099 470.152ZM370.189 527.287C370.416 521.804 378.306 517.568 377.748 524.073C377.633 525.225 375.015 521.723 374.346 523.218C373.122 525.875 378.323 527.543 375.567 530.325C375.068 530.793 370.166 527.577 370.177 527.277C370.181 527.281 370.185 527.284 370.189 527.287ZM163.904 407.427C163.829 407.361 162.605 407.949 162.623 408.046C163.095 410.335 165.521 409.173 163.904 407.427ZM88.2625 524.573C88.0538 524.637 87.7784 527.85 87.9673 527.961C91.5611 529.655 92.1173 523.333 88.2625 524.573ZM252.653 386.099C254.47 384.092 256.408 384.135 257.126 387.115C255.655 386.708 254.138 386.448 252.653 386.099Z" fill="#15171C"/>
<path d="M221.782 571.25H201.577L201.702 554.36H221.782C225.952 554.36 229.476 553.359 232.354 551.358C235.273 549.356 237.483 546.374 238.985 542.412C240.528 538.409 241.299 533.488 241.299 527.649V523.708C241.299 519.329 240.861 515.493 239.986 512.198C239.152 508.862 237.9 506.089 236.232 503.878C234.564 501.626 232.479 499.937 229.977 498.811C227.516 497.685 224.68 497.122 221.469 497.122H201.202V480.17H221.469C227.641 480.17 233.292 481.233 238.422 483.36C243.593 485.445 248.055 488.448 251.808 492.368C255.603 496.247 258.523 500.855 260.566 506.193C262.651 511.489 263.694 517.369 263.694 523.833V527.649C263.694 534.071 262.651 539.952 260.566 545.29C258.523 550.628 255.624 555.236 251.871 559.114C248.118 562.993 243.676 565.995 238.547 568.122C233.459 570.207 227.871 571.25 221.782 571.25ZM214.15 480.17V571.25H192.194V480.17H214.15Z" fill="#15171C"/>
<circle cx="544.625" cy="842.875" r="140.625" fill="white"/>
<path d="M708.161 852.66C708.456 858.465 706.919 865.955 705.012 871.43C704.422 873.143 703.361 872.027 702.892 873.184C701.973 875.425 702.1 877.749 700.998 879.915C700.627 880.628 698.936 879.233 698.591 879.982C696.713 884.064 696.058 888.206 694.258 892.329C685.398 912.508 673.839 930.727 658.594 946.234C653.559 951.381 646.102 956.012 640.927 961.201C640.322 961.813 641.804 962.834 641.767 963.047C641.108 966.371 639.602 963.107 638.007 963.764C631.66 966.376 625.601 970.235 620.455 973.975C618.263 975.563 622.312 977.21 618.977 976.876C618.749 976.854 618.455 974.919 617.715 975.106C616.045 975.538 613.408 977.29 612.181 977.735C609.822 978.585 609.463 978.775 607.323 979.744C604.376 981.051 600.527 981.677 597.463 983.27C596.807 983.617 598.386 985.035 597.384 985.749C596.383 986.469 593.356 987.354 592.21 987.256C591.065 987.164 591.039 985.617 590.757 985.353C588.456 983.106 586.227 987.895 585.773 988.116C578.03 992.02 570.325 991.212 562.555 992.156C556.656 992.876 550.349 993.965 544.625 993.87C544.578 993.869 544.53 993.868 544.483 993.867C537.626 993.716 531.975 992.322 525.415 991.675C524.722 991.602 525.251 993.901 524.395 993.813C515.287 992.865 506.318 990.583 498.172 986.377C497.358 985.953 499.063 984.466 498.295 983.934C493.491 980.737 487.417 974.076 480.912 980.318C477.632 978.443 473.705 976.028 471.646 972.904C470.329 970.895 473.172 970.09 470.48 969.572C469.874 969.449 469.594 971.434 468.748 971.122C465.17 969.792 462.061 967.065 458.472 965.708C457.738 965.435 456.948 966.907 456.598 967.025C453.675 967.928 453.595 962.868 453.276 962.249C450.656 957.494 447.401 955.856 444.012 952.696C443.231 951.96 442.658 954.463 441.846 953.805C437.649 950.356 433.839 946.137 431.123 941.5C430.525 940.466 432.666 940.038 432.458 939.484C431.551 937.072 428.446 938.945 427.554 936.606C427.366 936.117 428.812 935.322 428.894 935.14C430.219 932.308 426.355 933.795 426.055 933.548C422.283 930.564 423.977 925.757 421.119 922.439C420.771 922.035 419.689 924.158 418.811 922.942C412.948 914.843 408.629 904.949 406.717 895.222C406.418 893.71 408.247 894.185 408.391 894.026C410.642 891.555 406.574 892.002 406.263 891.574C403.934 888.216 406.109 883.831 400.831 882.543C398.553 869.319 395.365 856.188 396.933 842.875C397.32 839.6 397.995 836.414 399.044 833.247C399.106 833.045 401.042 833.539 401.158 833.139C402.623 828.347 399.518 829.095 396.172 825.328C395.336 824.353 400.141 822.407 400.501 822.256C401.82 821.634 404.594 822.87 404.865 822.64C407.012 820.789 397.398 819.653 397.927 816.575C397.96 816.484 399.64 817.192 399.859 816.97C400.545 816.285 399.994 815.381 400.744 814.735C402.482 813.254 407.183 813.65 405.103 810.479C404.839 810.069 399.361 809.347 400.272 806.721C400.621 805.683 401.824 800.945 402.578 799.758C403.314 798.565 404.729 799.976 404.831 799.904C408.136 797.17 408.654 798.77 412.48 798.211C416.291 797.707 408.376 795.472 407.754 794.474C407.131 793.472 409.855 791.663 410.711 791.321C411.566 790.969 412.327 792.111 412.883 791.726C416.543 789.211 409.7 788.693 408.964 787.035C407.27 783.054 413.819 783.34 415.482 781.24C415.939 780.66 414.432 780.59 414.598 779.95C415.289 777.406 417.667 776.924 417.524 773.535C417.492 772.994 415.481 769.075 418.598 769.086C419.042 769.096 420.04 770.391 420.887 769.626C422.15 768.484 423.97 766.187 424.504 764.455C424.9 763.17 421.992 763.032 423.549 762.092C424.242 761.682 424.711 763.609 425.906 762.781C427.09 761.956 429.014 759.127 429.758 758.054C430.492 756.978 428.549 756.413 428.508 756.253C428.3 755.297 429.137 752.709 429.285 752.533C436.244 743.33 445.881 738.158 453.655 730.476C454.275 729.872 452.573 728.674 452.654 728.566C454.47 726.047 455.946 731.666 458.63 731.825C455.909 728.8 457.306 728.63 458.701 727.037C459.374 726.268 458.005 725.325 457.982 725.142C457.787 722.32 460.458 724.21 461.032 724.576C463.168 725.908 462.479 723.051 463.91 723.955C465.319 724.861 465.36 727.587 466.944 726.484C466.597 724.969 463.256 722.631 464.179 721.276C467.701 716.025 478.728 713.339 482.994 711.783C487.279 710.129 488.562 709.338 491.226 708.824C496.05 707.966 493.402 705.975 495.836 703.726C498.322 701.503 499.125 708.566 500.009 709.838C500.87 711.121 500.812 709.524 501.553 710.145C502.285 710.77 501.563 712.067 502.778 711.999C503.978 711.926 506.304 708.477 506.32 706.862C506.315 703.44 503.906 700.491 507.445 700.807C507.647 700.829 507.513 702.748 508.26 702.744C514.129 702.671 519.95 701.63 525.691 702.12C526.477 702.192 526.059 704.293 526.515 704.358C531.238 705.092 529.195 701.901 531.435 697.862C531.324 702.957 532.99 705.873 536.41 705.694C538.486 705.598 538.004 703.416 539.314 701.805C539.711 701.319 541.25 702.792 541.497 701.75C542.335 698.345 540.81 694.546 544.625 696.032C544.627 696.033 544.628 696.033 544.63 696.034C544.689 696.059 544.66 696.307 544.625 696.621C544.578 697.035 544.519 697.565 544.625 697.86C544.667 697.976 544.734 698.056 544.839 698.077C548.493 698.842 548.996 695.296 553.069 695.069C556.289 694.89 561.677 697.577 565.119 698.441C564.277 704.057 567.61 703.235 569.632 699.619C571.871 700.169 574.346 700.436 576.402 701.452C577.106 701.8 576.253 703.295 576.308 703.49C577.092 706.528 578.909 703.05 579.435 703.026C585.025 702.93 588.302 706.956 594.032 706.011C594.231 705.976 595.879 702.367 596.181 705.558C596.189 705.774 593.982 706.862 596.183 707.842C598.41 708.828 601.698 712.482 605.453 712.231C606.351 712.161 609.633 710.175 609.991 713.165C610.033 713.568 609.31 714.471 609.304 715.174C609.28 717.415 611.617 714.13 611.077 717.682C610.537 721.237 611.327 724.539 615.26 724.16C615.379 724.152 617.666 721.831 618.529 722.42C619.898 723.355 621.506 725.171 622.935 726.111C623.621 726.56 624.286 724.639 624.425 724.689C629.688 726.95 631.884 730.792 635.919 735.182C636.644 735.975 640.812 736.06 640.933 739.074C641.023 742.35 632.759 747.741 637.896 749.565C639.887 750.258 650.722 743.843 648.584 750.985C654.685 755.534 656.189 762.896 662.021 767.828C662.281 768.048 665.738 767.122 666.125 767.837C666.689 768.894 665.656 770.275 665.993 771.047C667.363 774.304 670.1 776.479 671.442 779.635C671.948 780.829 670.271 781.153 670.849 782.563C671.417 783.966 673.828 783.992 673.711 786.328C673.616 788.104 670.116 791.231 670.362 793.262C674.461 791.721 674.909 793.059 676.86 795.046C677.237 795.428 678.494 794.418 678.746 794.574C679.809 795.206 678.906 796.454 680.006 797.034C680.271 797.176 681.692 796.709 681.989 796.802C684.586 797.594 682.142 801.083 681.694 801.645C680.035 803.864 682.11 804.059 681.602 805.523C681.084 806.968 679.54 805.443 679.404 806.989C679.117 810.165 680.202 813.842 680.694 816.834C680.899 818.025 682.711 816.849 682.786 817.011C683.755 819.435 682.035 822.269 686.166 823.119C676.201 826.234 687.384 824.501 685.734 828.442C685.597 828.749 680.792 829.571 679.974 828.586C679.155 827.607 680.479 825.818 679.176 824.502C678.872 824.173 674.081 822.9 673.766 822.698C671.319 821.027 678.42 819.516 678.796 819.327C682.82 817.29 677.516 815.754 677.055 815.227C674.937 812.684 675.352 810.078 673.646 808.007C672.536 806.659 667.913 807.822 667.722 806.643C667.071 802.788 672.858 799.167 666.134 797.558C664.692 797.225 660.138 799.836 662.914 795.715C663.097 795.469 665.747 792.044 663.067 791.824C662.731 791.8 661.342 792.407 661.144 792.273C659.85 791.368 660.582 790.051 659.432 788.96C658.283 787.876 656.738 786.689 656.428 784.978C656.244 783.952 658.115 781.469 658.479 780.694C659.545 778.488 655.956 778.798 657.604 776.839C659.236 774.833 663.333 774.517 663.433 771.62C660.008 773.572 656.441 775.488 652.983 777.428C650.569 773.174 648.86 768.434 645.664 764.597C645.266 764.128 643.98 765.923 643.515 765.461C641.567 763.527 641.183 760.709 638.828 758.965C636.997 757.622 633.722 757.413 631.742 756.226C633.969 752.058 630.396 750.73 628.826 748.787C628.27 748.099 629.111 747.237 628.897 746.526C628.05 743.867 626.294 747.623 625.404 747.684C621.622 748.005 627.168 740.876 624.335 738.955C624.175 738.838 619.571 741.388 619.175 741.474C616.546 741.971 619.92 739.943 619.186 738.974C617.84 737.212 617.23 735.394 614.356 735.201C613.503 735.143 610.469 736.763 610.482 734.063C610.481 733.708 611.392 732.402 611.311 732.244C609.744 729.499 607.153 733.787 605.026 734.527C602.91 735.274 602.497 731.164 602.5 730.052C602.54 727.185 603.872 729.522 604.046 729.334C606.169 727.06 604.361 726.686 603.253 725.849C605.279 721.385 603.361 720.771 602.091 725.003C601.953 725.464 603.108 725.525 603.253 725.849C600.012 729.597 598.053 729.32 597.807 724.29C597.677 721.934 599.618 720.082 596.165 719.589C594.602 719.379 593.863 722.72 592.316 723.088C588.821 723.943 586.3 719.71 583.166 719.26C582.052 719.104 582.539 721.185 581.768 721.144C579.736 721.049 578.413 719.241 576.287 719.428C576.097 719.448 576.041 721.427 575.444 721.3C570.915 720.397 567.18 718.393 562.332 717.67C559.991 717.31 555.699 717.933 553.298 717.571C550.592 717.152 547.545 715.796 544.625 715.121C543.019 714.747 541.492 714.578 540.196 714.866C537.824 715.393 538.448 717.309 537.515 718.675C535.767 721.315 532.049 717.064 531.473 716.42C531.455 716.395 533.446 715.748 532.265 714.864C531.426 712.868 531.492 716.409 531.473 716.42C531.12 715.981 526.981 716.036 526.234 716.536C525.827 716.799 526.336 718.575 526.122 718.677C521.019 721.089 516.03 722.633 510.589 723.286C510.487 723.276 510.067 721.267 509.831 721.271C506.51 721.28 505.289 724.318 503.387 726.564C501.476 728.82 499.49 729.075 496.721 726.413C495.076 727.561 491.864 727.292 489.96 727.157C488.051 727.021 489.599 730.711 489.51 730.841C486.697 735.065 483.452 734.244 479.302 736.349C477.329 737.334 474.02 740.22 472.375 741.96C471.074 743.329 469.615 743.256 468.618 744.782C468.484 744.987 469.757 746.245 469.743 746.342C469.575 749.17 467.6 745.209 466.807 744.847C463.926 743.544 462.216 742.987 461.148 745.644C460.884 746.268 463.757 752.054 463.278 752.985C462.624 754.209 461.471 752.226 460.825 753.569C460.77 753.683 461.731 754.672 461.078 755.209C458.058 757.717 454.494 760.294 451.921 763.514C451.568 763.949 453.696 764.83 453.222 765.473C450.998 768.491 448.467 771.655 445.537 774.077C444.81 774.671 443.87 773.335 443.383 773.239C440.402 772.701 442.764 776.394 442.686 776.658C440.693 783.297 435.027 786.097 433.706 793.16C433.625 793.571 436.454 797.829 432.585 797.606C432.329 797.581 428.341 797.401 430.34 799.394C430.467 799.515 432.555 799.472 431.886 800.684C431.213 801.914 431.713 804.374 429.108 805.517C428.29 805.865 424.248 806.168 426.616 808.767C426.766 808.98 432.578 813.358 427.828 813.121C427.047 813.082 422.276 811.718 424.231 814.447C424.616 814.962 425.858 814.488 426.286 815.694C426.954 817.526 425.21 819.416 427.027 821.786C427.346 822.212 430.411 824.185 427.72 824.953C427.298 825.076 425.718 824.478 425.442 825.075C424.123 827.938 424.874 831.214 423.52 834.19C423.046 835.258 420.419 834.517 419.635 835.652C418.849 836.788 418.07 839.154 419.271 840.42C420.471 841.668 424.739 840.413 425.063 842.192C425.105 842.42 425.145 842.647 425.181 842.875C426.394 850.256 424.704 857.725 425.735 865.22C425.895 866.352 427.208 865.143 427.561 866.766C428.805 872.865 433.235 882.35 432.363 888.505C431.652 893.535 427.686 889.171 428.044 892.735C428.25 894.5 433.499 894.075 433.797 894.343C436.827 897.083 436.088 900.396 438.369 903.074C438.84 903.618 440.239 902.026 440.617 902.492C441.917 904.059 442.256 906.332 443.445 907.874C443.982 908.561 445.176 907.59 445.51 908.311C446.33 910.029 446.751 911.76 446.693 914.119C446.691 914.337 444.461 914.512 445.256 915.721C446.542 917.661 447.248 920.872 450.114 922.01C450.972 922.345 453.637 920.09 452.92 922.948C452.773 923.542 449.321 925.995 453.369 925.075C454.065 924.958 459.836 923.993 458.698 927.318C458.397 928.197 456.751 931.418 457.831 931.717C457.983 931.745 458.926 930.04 459.62 930.46C462.038 931.955 464.057 934.055 466.61 935.438C467.29 935.8 467.687 933.595 468.652 934.171C471.297 935.746 473.99 938.429 476.097 940.643C476.871 941.463 475.326 942.348 475.29 942.537C474.753 945.637 477.581 942.897 478.053 942.942C481.012 943.296 481.774 945.895 484.16 946.739C484.813 946.972 485.316 945.142 485.515 945.068C487.509 944.371 484.973 946.716 485.566 947.471C487.236 949.602 489.803 950.781 492.19 951.671C493.065 951.993 493.05 949.626 493.814 949.93C498.35 951.685 502.904 953.727 507.057 956.334C507.842 956.828 506.796 958.209 506.859 958.623C507.322 961.533 510.245 958.683 510.743 958.471C513.079 957.53 513.433 959.124 515.209 959.298C523.809 960.139 534.038 962.409 542.219 963.105C543.031 963.18 543.832 963.25 544.625 963.317C554.114 964.078 562.17 964.503 571.362 962.115C571.992 961.949 570.876 959.967 571.404 959.797C578.19 957.711 585.136 956.354 591.459 952.98C591.976 952.707 590.398 951.136 591.186 950.638C592.796 949.602 594.981 948.711 596.992 948.445C597.973 948.31 597.635 950.462 598.616 950.288C600.909 949.878 603.113 948.856 604.941 947.415C605.711 946.799 603.386 945.708 604.455 945.056C611.718 940.533 618.082 935.387 626.355 931.488C626.918 931.223 630.252 933.992 630.642 932.478C629.888 931.55 628.912 930.543 628.059 929.596C636.619 920.402 645.398 911.319 651.664 900.151C651.924 899.685 649.487 899.419 649.972 898.521C652.775 893.282 654.461 887.895 658.617 882.902C659.024 882.403 662.711 884.018 662.726 882.07C662.731 881.727 663.063 878.916 662.421 877.995C662.322 877.867 660.392 877.804 660.586 876.957C661.74 872.024 663.303 867.024 665.227 862.159C665.541 861.37 667.371 862.552 667.611 861.985C669.309 857.933 668.261 853.203 670.261 849.221C671.597 846.54 674.988 847.684 678.418 846.243C678.905 846.037 679.01 844.225 680.978 844.143C685.934 843.926 691.348 844.932 696.632 844.6C697.776 844.529 696.557 841.745 699.302 843.399C699.488 843.514 700.381 845.556 701.299 846.083C701.936 846.451 703.953 845.849 704.762 846.598C705.569 847.354 703.869 848.106 704.79 849.349C705.717 850.606 708.03 850.152 708.161 852.66ZM481.295 726.845C478.968 725.942 482.207 732.164 482.847 729.893C482.874 729.777 481.412 726.888 481.295 726.845ZM653.093 765.427C654.366 761.897 649.85 763.471 648.8 766.057C647.715 768.602 652.691 766.48 653.093 765.427ZM666.236 782.988C667.29 779.642 658.289 783.879 661.219 785.234C661.385 785.314 666.173 783.18 666.236 782.988ZM679.012 853.494C679.108 853.48 679.294 852.18 679.203 852.142C677.031 851.308 676.666 853.862 679.012 853.494ZM676.628 802.564C677.688 801.413 675.506 799.704 674.216 801.154C673.178 802.301 675.309 803.976 676.628 802.564ZM418.599 782.652C418.493 782.63 417.992 783.467 418.536 783.701C420.284 784.449 420.37 783.021 418.599 782.652ZM682.689 839.787C682.916 834.304 690.806 830.068 690.248 836.573C690.133 837.725 687.515 834.223 686.846 835.718C685.622 838.375 690.823 840.043 688.067 842.825C687.568 843.293 682.666 840.077 682.677 839.777C682.681 839.781 682.685 839.784 682.689 839.787ZM476.404 719.927C476.329 719.861 475.105 720.449 475.123 720.546C475.595 722.835 478.021 721.673 476.404 719.927ZM400.763 837.073C400.554 837.137 400.278 840.35 400.467 840.461C404.061 842.155 404.617 835.833 400.763 837.073ZM565.153 698.599C566.97 696.592 568.908 696.635 569.626 699.615C568.155 699.208 566.638 698.948 565.153 698.599Z" fill="#15171C"/>
<circle cx="794.625" cy="374.125" r="140.625" fill="white"/>
<path d="M958.161 383.91C958.456 389.715 956.919 397.205 955.012 402.68C954.422 404.393 953.361 403.277 952.892 404.434C951.973 406.675 952.1 408.999 950.998 411.165C950.627 411.878 948.936 410.483 948.591 411.232C946.713 415.314 946.058 419.456 944.258 423.579C935.398 443.758 923.839 461.977 908.594 477.484C903.559 482.631 896.102 487.262 890.927 492.451C890.322 493.063 891.804 494.084 891.767 494.297C891.108 497.621 889.602 494.357 888.007 495.014C881.66 497.626 875.601 501.485 870.455 505.225C868.263 506.813 872.312 508.46 868.977 508.126C868.749 508.104 868.455 506.169 867.715 506.356C866.045 506.788 863.408 508.54 862.181 508.985C859.822 509.835 859.463 510.025 857.323 510.994C854.376 512.301 850.527 512.927 847.463 514.52C846.807 514.867 848.386 516.285 847.384 516.999C846.383 517.719 843.356 518.604 842.21 518.506C841.065 518.414 841.039 516.867 840.757 516.603C838.456 514.356 836.227 519.145 835.773 519.366C828.03 523.27 820.325 522.462 812.555 523.406C806.656 524.126 800.349 525.215 794.625 525.12C794.578 525.119 794.53 525.118 794.483 525.117C787.626 524.966 781.975 523.572 775.415 522.925C774.722 522.852 775.251 525.151 774.395 525.063C765.287 524.115 756.318 521.833 748.172 517.627C747.358 517.203 749.063 515.716 748.295 515.184C743.491 511.987 737.417 505.326 730.912 511.568C727.632 509.693 723.705 507.278 721.646 504.154C720.329 502.145 723.172 501.34 720.48 500.822C719.874 500.699 719.594 502.684 718.748 502.372C715.17 501.042 712.061 498.315 708.472 496.958C707.738 496.685 706.948 498.157 706.598 498.275C703.675 499.178 703.595 494.118 703.276 493.499C700.656 488.744 697.401 487.106 694.012 483.946C693.231 483.21 692.658 485.713 691.846 485.055C687.649 481.606 683.839 477.387 681.123 472.75C680.525 471.716 682.666 471.288 682.458 470.734C681.551 468.322 678.446 470.195 677.554 467.856C677.366 467.367 678.812 466.572 678.894 466.39C680.219 463.558 676.355 465.045 676.055 464.798C672.283 461.814 673.977 457.007 671.119 453.689C670.771 453.285 669.689 455.408 668.811 454.192C662.948 446.093 658.629 436.199 656.717 426.472C656.418 424.96 658.247 425.435 658.391 425.276C660.642 422.805 656.574 423.252 656.263 422.824C653.934 419.466 656.109 415.081 650.831 413.793C648.553 400.569 645.365 387.438 646.933 374.125C647.32 370.85 647.995 367.664 649.044 364.497C649.106 364.295 651.042 364.789 651.158 364.389C652.623 359.597 649.518 360.345 646.172 356.578C645.336 355.603 650.141 353.657 650.501 353.506C651.82 352.884 654.594 354.12 654.865 353.89C657.012 352.039 647.398 350.903 647.927 347.825C647.96 347.734 649.64 348.442 649.859 348.22C650.545 347.535 649.994 346.631 650.744 345.985C652.482 344.504 657.183 344.9 655.103 341.729C654.839 341.319 649.361 340.597 650.272 337.971C650.621 336.933 651.824 332.195 652.578 331.008C653.314 329.815 654.729 331.226 654.831 331.154C658.136 328.42 658.654 330.02 662.48 329.461C666.291 328.957 658.376 326.722 657.754 325.724C657.131 324.722 659.855 322.913 660.711 322.571C661.566 322.219 662.327 323.361 662.883 322.976C666.543 320.461 659.7 319.943 658.964 318.285C657.27 314.304 663.819 314.59 665.482 312.49C665.939 311.91 664.432 311.84 664.598 311.2C665.289 308.656 667.667 308.174 667.524 304.785C667.492 304.244 665.481 300.325 668.598 300.336C669.042 300.346 670.04 301.641 670.887 300.876C672.15 299.734 673.97 297.437 674.504 295.705C674.9 294.42 671.992 294.282 673.549 293.342C674.242 292.932 674.711 294.859 675.906 294.031C677.09 293.206 679.014 290.377 679.758 289.304C680.492 288.228 678.549 287.663 678.508 287.503C678.3 286.547 679.137 283.959 679.285 283.783C686.244 274.58 695.881 269.408 703.655 261.726C704.275 261.122 702.573 259.924 702.654 259.816C704.47 257.297 705.946 262.916 708.63 263.075C705.909 260.05 707.306 259.88 708.701 258.287C709.374 257.518 708.005 256.575 707.982 256.392C707.787 253.57 710.458 255.46 711.032 255.826C713.168 257.158 712.479 254.301 713.91 255.205C715.319 256.111 715.36 258.837 716.944 257.734C716.597 256.219 713.256 253.881 714.179 252.526C717.701 247.275 728.728 244.589 732.994 243.033C737.279 241.379 738.562 240.588 741.226 240.074C746.05 239.216 743.402 237.225 745.836 234.976C748.322 232.753 749.125 239.816 750.009 241.088C750.87 242.371 750.812 240.774 751.553 241.395C752.285 242.02 751.563 243.317 752.778 243.249C753.978 243.176 756.304 239.727 756.32 238.112C756.315 234.69 753.906 231.741 757.445 232.057C757.647 232.079 757.513 233.998 758.26 233.994C764.129 233.921 769.95 232.88 775.691 233.37C776.477 233.442 776.059 235.543 776.515 235.608C781.238 236.342 779.195 233.151 781.435 229.112C781.324 234.207 782.99 237.123 786.41 236.944C788.486 236.848 788.004 234.666 789.314 233.055C789.711 232.569 791.25 234.042 791.497 233C792.335 229.595 790.81 225.796 794.625 227.282C794.627 227.283 794.628 227.283 794.63 227.284C794.689 227.309 794.66 227.557 794.625 227.871C794.578 228.285 794.519 228.815 794.625 229.11C794.667 229.226 794.734 229.306 794.839 229.327C798.493 230.092 798.996 226.546 803.069 226.319C806.289 226.14 811.677 228.827 815.119 229.691C814.277 235.307 817.61 234.485 819.632 230.869C821.871 231.419 824.346 231.686 826.402 232.702C827.106 233.05 826.253 234.545 826.308 234.74C827.092 237.778 828.909 234.3 829.435 234.276C835.025 234.18 838.302 238.206 844.032 237.261C844.231 237.226 845.879 233.617 846.181 236.808C846.189 237.024 843.982 238.112 846.183 239.092C848.41 240.078 851.698 243.732 855.453 243.481C856.351 243.411 859.633 241.425 859.991 244.415C860.033 244.818 859.31 245.721 859.304 246.424C859.28 248.665 861.617 245.38 861.077 248.932C860.537 252.487 861.327 255.789 865.26 255.41C865.379 255.402 867.666 253.081 868.529 253.67C869.898 254.605 871.506 256.421 872.935 257.361C873.621 257.81 874.286 255.889 874.425 255.939C879.688 258.2 881.884 262.042 885.919 266.432C886.644 267.225 890.812 267.31 890.933 270.324C891.023 273.6 882.759 278.991 887.896 280.815C889.887 281.508 900.722 275.093 898.584 282.235C904.685 286.784 906.189 294.146 912.021 299.078C912.281 299.298 915.738 298.372 916.125 299.087C916.689 300.144 915.656 301.525 915.993 302.297C917.363 305.554 920.1 307.729 921.442 310.885C921.948 312.079 920.271 312.403 920.849 313.813C921.417 315.216 923.828 315.242 923.711 317.578C923.616 319.354 920.116 322.481 920.362 324.512C924.461 322.971 924.909 324.309 926.86 326.296C927.237 326.678 928.494 325.668 928.746 325.824C929.809 326.456 928.906 327.704 930.006 328.284C930.271 328.426 931.692 327.959 931.989 328.052C934.586 328.844 932.142 332.333 931.694 332.895C930.035 335.114 932.11 335.309 931.602 336.773C931.084 338.218 929.54 336.693 929.404 338.239C929.117 341.415 930.202 345.092 930.694 348.084C930.899 349.275 932.711 348.099 932.786 348.261C933.755 350.685 932.035 353.519 936.166 354.369C926.201 357.484 937.384 355.751 935.734 359.692C935.597 359.999 930.792 360.821 929.974 359.836C929.155 358.857 930.479 357.068 929.176 355.752C928.872 355.423 924.081 354.15 923.766 353.948C921.319 352.277 928.42 350.766 928.796 350.577C932.82 348.54 927.516 347.004 927.055 346.477C924.937 343.934 925.352 341.328 923.646 339.257C922.536 337.909 917.913 339.072 917.722 337.893C917.071 334.038 922.858 330.417 916.134 328.808C914.692 328.475 910.138 331.086 912.914 326.965C913.097 326.719 915.747 323.294 913.067 323.074C912.731 323.05 911.342 323.657 911.144 323.523C909.85 322.618 910.582 321.301 909.432 320.21C908.283 319.126 906.738 317.939 906.428 316.228C906.244 315.202 908.115 312.719 908.479 311.944C909.545 309.738 905.956 310.048 907.604 308.089C909.236 306.083 913.333 305.767 913.433 302.87C910.008 304.822 906.441 306.738 902.983 308.678C900.569 304.424 898.86 299.684 895.664 295.847C895.266 295.378 893.98 297.173 893.515 296.711C891.567 294.777 891.183 291.959 888.828 290.215C886.997 288.872 883.722 288.663 881.742 287.476C883.969 283.308 880.396 281.98 878.826 280.037C878.27 279.349 879.111 278.487 878.897 277.776C878.05 275.117 876.294 278.873 875.404 278.934C871.622 279.255 877.168 272.126 874.335 270.205C874.175 270.088 869.571 272.638 869.175 272.724C866.546 273.221 869.92 271.193 869.186 270.224C867.84 268.462 867.23 266.644 864.356 266.451C863.503 266.393 860.469 268.013 860.482 265.313C860.481 264.958 861.392 263.652 861.311 263.494C859.744 260.749 857.153 265.037 855.026 265.777C852.91 266.524 852.497 262.414 852.5 261.302C852.54 258.435 853.872 260.772 854.046 260.584C856.169 258.31 854.361 257.936 853.253 257.099C855.279 252.635 853.361 252.021 852.091 256.253C851.953 256.714 853.108 256.775 853.253 257.099C850.012 260.847 848.053 260.57 847.807 255.54C847.677 253.184 849.618 251.332 846.165 250.839C844.602 250.629 843.863 253.97 842.316 254.338C838.821 255.193 836.3 250.96 833.166 250.51C832.052 250.354 832.539 252.435 831.768 252.394C829.736 252.299 828.413 250.491 826.287 250.678C826.097 250.698 826.041 252.677 825.444 252.55C820.915 251.647 817.18 249.643 812.332 248.92C809.991 248.56 805.699 249.183 803.298 248.821C800.592 248.402 797.545 247.046 794.625 246.371C793.019 245.997 791.492 245.828 790.196 246.116C787.824 246.643 788.448 248.559 787.515 249.925C785.767 252.565 782.049 248.314 781.473 247.67C781.455 247.645 783.446 246.998 782.265 246.114C781.426 244.118 781.492 247.659 781.473 247.67C781.12 247.231 776.981 247.286 776.234 247.786C775.827 248.049 776.336 249.825 776.122 249.927C771.019 252.339 766.03 253.883 760.589 254.536C760.487 254.526 760.067 252.517 759.831 252.521C756.51 252.53 755.289 255.568 753.387 257.814C751.476 260.07 749.49 260.325 746.721 257.663C745.076 258.811 741.864 258.542 739.96 258.407C738.051 258.271 739.599 261.961 739.51 262.091C736.697 266.315 733.452 265.494 729.302 267.599C727.329 268.584 724.02 271.47 722.375 273.21C721.074 274.579 719.615 274.506 718.618 276.032C718.484 276.237 719.757 277.495 719.743 277.592C719.575 280.42 717.6 276.459 716.807 276.097C713.926 274.794 712.216 274.237 711.148 276.894C710.884 277.518 713.757 283.304 713.278 284.235C712.624 285.459 711.471 283.476 710.825 284.819C710.77 284.933 711.731 285.922 711.078 286.459C708.058 288.967 704.494 291.544 701.921 294.764C701.568 295.199 703.696 296.08 703.222 296.723C700.998 299.741 698.467 302.905 695.537 305.327C694.81 305.921 693.87 304.585 693.383 304.489C690.402 303.951 692.764 307.644 692.686 307.908C690.693 314.547 685.027 317.347 683.706 324.41C683.625 324.821 686.454 329.079 682.585 328.856C682.329 328.831 678.341 328.651 680.34 330.644C680.467 330.765 682.555 330.722 681.886 331.934C681.213 333.164 681.713 335.624 679.108 336.767C678.29 337.115 674.248 337.418 676.616 340.017C676.766 340.23 682.578 344.608 677.828 344.371C677.047 344.332 672.276 342.968 674.231 345.697C674.616 346.212 675.858 345.738 676.286 346.944C676.954 348.776 675.21 350.666 677.027 353.036C677.346 353.462 680.411 355.435 677.72 356.203C677.298 356.326 675.718 355.728 675.442 356.325C674.123 359.188 674.874 362.464 673.52 365.44C673.046 366.508 670.419 365.767 669.635 366.902C668.849 368.038 668.07 370.404 669.271 371.67C670.471 372.918 674.739 371.663 675.063 373.442C675.105 373.67 675.145 373.897 675.181 374.125C676.394 381.506 674.704 388.975 675.735 396.47C675.895 397.602 677.208 396.393 677.561 398.016C678.805 404.115 683.235 413.6 682.363 419.755C681.652 424.785 677.686 420.421 678.044 423.985C678.25 425.75 683.499 425.325 683.797 425.593C686.827 428.333 686.088 431.646 688.369 434.324C688.84 434.868 690.239 433.276 690.617 433.742C691.917 435.309 692.256 437.582 693.445 439.124C693.982 439.811 695.176 438.84 695.51 439.561C696.33 441.279 696.751 443.01 696.693 445.369C696.691 445.587 694.461 445.762 695.256 446.971C696.542 448.911 697.248 452.122 700.114 453.26C700.972 453.595 703.637 451.34 702.92 454.198C702.773 454.792 699.321 457.245 703.369 456.325C704.065 456.208 709.836 455.243 708.698 458.568C708.397 459.447 706.751 462.668 707.831 462.967C707.983 462.995 708.926 461.29 709.62 461.71C712.038 463.205 714.057 465.305 716.61 466.688C717.29 467.05 717.687 464.845 718.652 465.421C721.297 466.996 723.99 469.679 726.097 471.893C726.871 472.713 725.326 473.598 725.29 473.787C724.753 476.887 727.581 474.147 728.053 474.192C731.012 474.546 731.774 477.145 734.16 477.989C734.813 478.222 735.316 476.392 735.515 476.318C737.509 475.621 734.973 477.966 735.566 478.721C737.236 480.852 739.803 482.031 742.19 482.921C743.065 483.243 743.05 480.876 743.814 481.18C748.35 482.935 752.904 484.977 757.057 487.584C757.842 488.078 756.796 489.459 756.859 489.873C757.322 492.783 760.245 489.933 760.743 489.721C763.079 488.78 763.433 490.374 765.209 490.548C773.809 491.389 784.038 493.659 792.219 494.355C793.031 494.43 793.832 494.5 794.625 494.567C804.114 495.328 812.17 495.753 821.362 493.365C821.992 493.199 820.876 491.217 821.404 491.047C828.19 488.961 835.136 487.604 841.459 484.23C841.976 483.957 840.398 482.386 841.186 481.888C842.796 480.852 844.981 479.961 846.992 479.695C847.973 479.56 847.635 481.712 848.616 481.538C850.909 481.128 853.113 480.106 854.941 478.665C855.711 478.049 853.386 476.958 854.455 476.306C861.718 471.783 868.082 466.637 876.355 462.738C876.918 462.473 880.252 465.242 880.642 463.728C879.888 462.8 878.912 461.793 878.059 460.846C886.619 451.652 895.398 442.569 901.664 431.401C901.924 430.935 899.487 430.669 899.972 429.771C902.775 424.532 904.461 419.145 908.617 414.152C909.024 413.653 912.711 415.268 912.726 413.32C912.731 412.977 913.063 410.166 912.421 409.245C912.322 409.117 910.392 409.054 910.586 408.207C911.74 403.274 913.303 398.274 915.227 393.409C915.541 392.62 917.371 393.802 917.611 393.235C919.309 389.183 918.261 384.453 920.261 380.471C921.597 377.79 924.988 378.934 928.418 377.493C928.905 377.287 929.01 375.475 930.978 375.393C935.934 375.176 941.348 376.182 946.632 375.85C947.776 375.779 946.557 372.995 949.302 374.649C949.488 374.764 950.381 376.806 951.299 377.333C951.936 377.701 953.953 377.099 954.762 377.848C955.569 378.604 953.869 379.356 954.79 380.599C955.717 381.856 958.03 381.402 958.161 383.91ZM731.295 258.095C728.968 257.192 732.207 263.414 732.847 261.143C732.874 261.027 731.412 258.138 731.295 258.095ZM903.093 296.677C904.366 293.147 899.85 294.721 898.8 297.307C897.715 299.852 902.691 297.73 903.093 296.677ZM916.236 314.238C917.29 310.892 908.289 315.129 911.219 316.484C911.385 316.564 916.173 314.43 916.236 314.238ZM929.012 384.744C929.108 384.73 929.294 383.43 929.203 383.392C927.031 382.558 926.666 385.112 929.012 384.744ZM926.628 333.814C927.688 332.663 925.506 330.954 924.216 332.404C923.178 333.551 925.309 335.226 926.628 333.814ZM668.599 313.902C668.493 313.88 667.992 314.717 668.536 314.951C670.284 315.699 670.37 314.271 668.599 313.902ZM932.689 371.037C932.916 365.554 940.806 361.318 940.248 367.823C940.133 368.975 937.515 365.473 936.846 366.968C935.622 369.625 940.823 371.293 938.067 374.075C937.568 374.543 932.666 371.327 932.677 371.027C932.681 371.031 932.685 371.034 932.689 371.037ZM726.404 251.177C726.329 251.111 725.105 251.699 725.123 251.796C725.595 254.085 728.021 252.923 726.404 251.177ZM650.763 368.323C650.554 368.387 650.278 371.6 650.467 371.711C654.061 373.405 654.617 367.083 650.763 368.323ZM815.153 229.849C816.97 227.842 818.908 227.885 819.626 230.865C818.155 230.458 816.638 230.198 815.153 229.849Z" fill="#15171C"/>
<path d="M716.5 483.5L646.835 540.813L731.302 572.488L716.5 483.5ZM622.75 733.5L630.065 736.243L699.127 552.079L691.812 549.336L684.497 546.592L615.435 730.757L622.75 733.5Z" fill="white"/>
<path opacity="0.75" d="M341.5 639.75L364.848 726.887L428.637 663.098L341.5 639.75ZM435.25 733.5L440.774 727.976L396.743 683.944L391.218 689.468L385.694 694.993L429.726 739.024L435.25 733.5Z" fill="white"/>
<path d="M654 389.75L521.431 362.622L564.222 490.994L654 389.75ZM372.75 483.5L376.456 494.617L557.649 434.22L553.944 423.102L550.238 411.985L369.044 472.383L372.75 483.5Z" fill="white"/>
<path d="M523.773 792.67L538.661 822.947L553.549 792.67H578.571L553.174 837.835L579.259 883.75H553.987L538.661 852.91L523.335 883.75H498L524.148 837.835L498.688 792.67H523.773Z" fill="#15171C"/>
<path d="M771.208 323.92L787.973 363.455L804.8 323.92H828.446L799.17 382.284V415H776.838V382.284L747.5 323.92H771.208Z" fill="#15171C"/>
</svg>
